<svg xmlns="http://www.w3.org/2000/svg" width="64" height="64" viewBox="0 0 268 246" role="img" aria-labelledby="title">
    <title id="title">Laravel Production Playground</title>
    <style>
        @media (prefers-color-scheme: dark) {
            .ink { fill: #f8fafc; }
            .signal { fill: #67e8f9; }
        }
    </style>
    <g transform="translate(0 242)">
        <path class="ink" d="M12-238H82C99.734375-238 113.667969-231.398438 123.800781-218.199219C128.601562-211.933594 132.332031-204.199219 135-195C137.667969-185.800781 139-175.535156 139-164.199219C139-155.398438 138.199219-147.167969 136.601562-139.5C135-131.832031 132.464844-124.867188 129-118.601562C125.667969-112.601562 121.765625-107.535156 117.300781-103.398438C112.832031-99.265625 107.535156-96.066406 101.398438-93.800781C95.535156-91.667969 89.066406-90.601562 82-90.601562H59V0H12ZM59-134.601562H70C72.398438-134.601562 74.800781-134.964844 77.199219-135.699219C79.601562-136.433594 81.800781-137.800781 83.800781-139.800781C85.667969-141.667969 87.167969-143.667969 88.300781-145.800781C89.433594-147.933594 90.398438-150.734375 91.199219-154.199219C91.464844-155.667969 91.667969-157.234375 91.800781-158.898438C91.933594-160.566406 92-162.332031 92-164.199219C92-167.667969 91.699219-170.964844 91.101562-174.101562C90.5-177.234375 89.535156-180.066406 88.199219-182.601562C86.867188-185 85.367188-187.035156 83.699219-188.699219C82.035156-190.367188 80-191.734375 77.601562-192.800781C75.464844-193.601562 72.933594-194 70-194H59Z" fill="#0b1424"/>
        <path class="signal" d="M12-238H82C99.734375-238 113.667969-231.398438 123.800781-218.199219C128.601562-211.933594 132.332031-204.199219 135-195C137.667969-185.800781 139-175.535156 139-164.199219C139-155.398438 138.199219-147.167969 136.601562-139.5C135-131.832031 132.464844-124.867188 129-118.601562C125.667969-112.601562 121.765625-107.535156 117.300781-103.398438C112.832031-99.265625 107.535156-96.066406 101.398438-93.800781C95.535156-91.667969 89.066406-90.601562 82-90.601562H59V0H12ZM59-134.601562H70C72.398438-134.601562 74.800781-134.964844 77.199219-135.699219C79.601562-136.433594 81.800781-137.800781 83.800781-139.800781C85.667969-141.667969 87.167969-143.667969 88.300781-145.800781C89.433594-147.933594 90.398438-150.734375 91.199219-154.199219C91.464844-155.667969 91.667969-157.234375 91.800781-158.898438C91.933594-160.566406 92-162.332031 92-164.199219C92-167.667969 91.699219-170.964844 91.101562-174.101562C90.5-177.234375 89.535156-180.066406 88.199219-182.601562C86.867188-185 85.367188-187.035156 83.699219-188.699219C82.035156-190.367188 80-191.734375 77.601562-192.800781C75.464844-193.601562 72.933594-194 70-194H59Z" transform="translate(129)" fill="#2563eb"/>
    </g>
</svg>
